<?xml version="1.0" encoding="utf-8"?>
<!-- Generator: Adobe Illustrator 22.0.1, SVG Export Plug-In . SVG Version: 6.00 Build 0)  -->
<svg version="1.1" id="Layer_1" xmlns="http://www.w3.org/2000/svg" xmlns:xlink="http://www.w3.org/1999/xlink" x="0px" y="0px"
	 viewBox="0 0 122.2 107.5" style="enable-background:new 0 0 122.2 107.5;" xml:space="preserve">
<style type="text/css">
	.st0{fill:url(#SVGID_1_);}
	.st1{fill:url(#SVGID_2_);}
	.st2{fill:url(#SVGID_3_);}
	.st3{fill:url(#SVGID_4_);}
	.st4{fill:url(#SVGID_5_);}
	.st5{fill:url(#SVGID_6_);}
	.st6{fill:url(#SVGID_7_);}
</style>
<linearGradient id="SVGID_1_" gradientUnits="userSpaceOnUse" x1="221.8649" y1="-91.6973" x2="312.395" y2="-181.2796" gradientTransform="matrix(0.9549 -0.297 0.297 0.9549 -165.4832 276.9905)">
	<stop  offset="0" style="stop-color:#4D62A0"/>
	<stop  offset="0.4595" style="stop-color:#7F639F"/>
	<stop  offset="0.833" style="stop-color:#BB639F"/>
	<stop  offset="1" style="stop-color:#D9629E"/>
</linearGradient>
<path class="st0" d="M78.4,96.3c-13.3,6.8-67.3-28.8-67-50.5c0.3-21.7,42-43.8,75.2-35.6C122.2,19,101,84.7,78.4,96.3z"/>
<linearGradient id="SVGID_2_" gradientUnits="userSpaceOnUse" x1="11.5262" y1="74.1832" x2="77.0381" y2="39.3498">
	<stop  offset="0" style="stop-color:#99C45A"/>
	<stop  offset="0.5" style="stop-color:#7BB85E"/>
	<stop  offset="1" style="stop-color:#52894B"/>
</linearGradient>
<path class="st1" d="M45.5,107.4V65.7c0,0-0.5-9.6-6.1-13.3C32.3,47.6,0,29,0,29l14.2-7.6l28.2,16.6c0,0,16.1,7.6,16.1,26.3
	c0,16.9,0,35.7,0,35.7L45.5,107.4z"/>
<linearGradient id="SVGID_3_" gradientUnits="userSpaceOnUse" x1="2388.0266" y1="64.4428" x2="2445.5115" y2="64.4428" gradientTransform="matrix(-1 0 0 1 2510 0)">
	<stop  offset="0" style="stop-color:#76C3EE"/>
	<stop  offset="0.5" style="stop-color:#6BABE2"/>
	<stop  offset="1" style="stop-color:#6494D0"/>
</linearGradient>
<path class="st2" d="M76.5,107.4V65.7c0,0,0.9-10,6.1-13.3C89.8,47.7,122,29,122,29l-14.2-7.6L80.1,38.1c0,0-15.6,7.6-15.6,26.3
	c0,16.9,0,35.7,0,35.7L76.5,107.4z"/>
<linearGradient id="SVGID_4_" gradientUnits="userSpaceOnUse" x1="142.4888" y1="20.0519" x2="-29.6371" y2="20.0519">
	<stop  offset="0" style="stop-color:#FAEF60"/>
	<stop  offset="6.254080e-02" style="stop-color:#F5DB57"/>
	<stop  offset="0.1324" style="stop-color:#F2CC51"/>
	<stop  offset="0.2043" style="stop-color:#F0C34D"/>
	<stop  offset="0.2809" style="stop-color:#F0C04C"/>
	<stop  offset="0.6685" style="stop-color:#E08A58"/>
	<stop  offset="0.8876" style="stop-color:#DA7155"/>
	<stop  offset="1" style="stop-color:#D65E56"/>
</linearGradient>
<path class="st3" d="M106.5,1L69.1,23.8c0,0-7.9,4-14.1,0.9C47.4,20.9,16.5,1,16.5,1v16.1L43.6,34c0,0,14.3,10.5,30.8,1.7
	c15-8,32.1-18.6,32.1-18.6V1z"/>
<linearGradient id="SVGID_5_" gradientUnits="userSpaceOnUse" x1="19.025" y1="64.4438" x2="38.9953" y2="64.4438">
	<stop  offset="0" style="stop-color:#99C45A"/>
	<stop  offset="0.5" style="stop-color:#7BB85E"/>
	<stop  offset="1" style="stop-color:#52894B"/>
</linearGradient>
<path class="st4" d="M39,64.4c0,5.5-4.5,10-10,10s-10-4.5-10-10c0-5.5,4.5-10,10-10S39,58.9,39,64.4z"/>
<linearGradient id="SVGID_6_" gradientUnits="userSpaceOnUse" x1="84.5626" y1="64.4438" x2="104.5319" y2="64.4438">
	<stop  offset="0" style="stop-color:#76C3EE"/>
	<stop  offset="0.5" style="stop-color:#6BABE2"/>
	<stop  offset="1" style="stop-color:#6494D0"/>
</linearGradient>
<path class="st5" d="M104.5,64.4c0,5.5-4.5,10-10,10c-5.5,0-10-4.5-10-10c0-5.5,4.5-10,10-10C100.1,54.5,104.5,58.9,104.5,64.4z"/>
<linearGradient id="SVGID_7_" gradientUnits="userSpaceOnUse" x1="61.0566" y1="-42.6349" x2="61.0566" y2="73.1964">
	<stop  offset="0" style="stop-color:#FAEF60"/>
	<stop  offset="6.254080e-02" style="stop-color:#F5DB57"/>
	<stop  offset="0.1324" style="stop-color:#F2CC51"/>
	<stop  offset="0.2043" style="stop-color:#F0C34D"/>
	<stop  offset="0.2809" style="stop-color:#F0C04C"/>
	<stop  offset="0.6685" style="stop-color:#E08A58"/>
	<stop  offset="0.8876" style="stop-color:#DA7155"/>
	<stop  offset="1" style="stop-color:#D65E56"/>
</linearGradient>
<circle class="st6" cx="61.1" cy="10" r="10"/>
</svg>
